<mxfile host="app.diagrams.net" modified="2024-06-21T01:57:45.448Z" agent="Mozilla/5.0 (Windows NT 10.0; Win64; x64) AppleWebKit/537.36 (KHTML, like Gecko) Chrome/126.0.0.0 Safari/537.36 Edg/126.0.0.0" etag="zKFt76CKsAyV_7WY4pQr" version="24.6.0" type="github">
  <diagram name="Page-1" id="edf60f1a-56cd-e834-aa8a-f176f3a09ee4">
    <mxGraphModel dx="1395" dy="698" grid="1" gridSize="10" guides="1" tooltips="1" connect="1" arrows="1" fold="1" page="1" pageScale="1" pageWidth="1100" pageHeight="850" background="none" math="0" shadow="0">
      <root>
        <mxCell id="0" />
        <mxCell id="1" parent="0" />
        <mxCell id="TNJB3uWYyl54-ObIorqC-5" value="문자열 id와 pw값을 읽음" style="text;html=1;align=center;verticalAlign=middle;whiteSpace=wrap;rounded=0;fontSize=16;" vertex="1" parent="1">
          <mxGeometry x="230" y="115" width="200" height="30" as="geometry" />
        </mxCell>
        <mxCell id="TNJB3uWYyl54-ObIorqC-37" style="edgeStyle=none;curved=1;rounded=0;orthogonalLoop=1;jettySize=auto;html=1;fontSize=12;startSize=8;endSize=8;" edge="1" parent="1" source="TNJB3uWYyl54-ObIorqC-7" target="TNJB3uWYyl54-ObIorqC-36">
          <mxGeometry relative="1" as="geometry" />
        </mxCell>
        <mxCell id="TNJB3uWYyl54-ObIorqC-7" value="logInfo!=null" style="html=1;whiteSpace=wrap;aspect=fixed;shape=isoRectangle;" vertex="1" parent="1">
          <mxGeometry x="430" y="250" width="100" height="60" as="geometry" />
        </mxCell>
        <mxCell id="TNJB3uWYyl54-ObIorqC-10" style="edgeStyle=none;curved=1;rounded=0;orthogonalLoop=1;jettySize=auto;html=1;exitX=0.5;exitY=0.5;exitDx=0;exitDy=15;exitPerimeter=0;entryX=0.5;entryY=0;entryDx=0;entryDy=0;fontSize=12;startSize=8;endSize=8;" edge="1" parent="1" source="TNJB3uWYyl54-ObIorqC-8" target="TNJB3uWYyl54-ObIorqC-9">
          <mxGeometry relative="1" as="geometry" />
        </mxCell>
        <mxCell id="TNJB3uWYyl54-ObIorqC-8" value="START" style="html=1;dashed=0;whiteSpace=wrap;shape=mxgraph.dfd.start" vertex="1" parent="1">
          <mxGeometry x="440" y="50" width="80" height="30" as="geometry" />
        </mxCell>
        <mxCell id="TNJB3uWYyl54-ObIorqC-12" style="edgeStyle=none;curved=1;rounded=0;orthogonalLoop=1;jettySize=auto;html=1;exitX=0.5;exitY=1;exitDx=0;exitDy=0;entryX=0.5;entryY=0;entryDx=0;entryDy=0;fontSize=12;startSize=8;endSize=8;" edge="1" parent="1" source="TNJB3uWYyl54-ObIorqC-9" target="TNJB3uWYyl54-ObIorqC-11">
          <mxGeometry relative="1" as="geometry" />
        </mxCell>
        <mxCell id="TNJB3uWYyl54-ObIorqC-9" value="&lt;div&gt;READ id, pw&lt;/div&gt;" style="shape=parallelogram;perimeter=parallelogramPerimeter;whiteSpace=wrap;html=1;dashed=0;" vertex="1" parent="1">
          <mxGeometry x="430" y="110" width="100" height="40" as="geometry" />
        </mxCell>
        <mxCell id="TNJB3uWYyl54-ObIorqC-11" value="logInfo= id+pw" style="html=1;dashed=0;whiteSpace=wrap;" vertex="1" parent="1">
          <mxGeometry x="430" y="180" width="100" height="40" as="geometry" />
        </mxCell>
        <mxCell id="TNJB3uWYyl54-ObIorqC-13" value="id와 pw값을 더한 후 logInfo에 저장함" style="text;html=1;align=center;verticalAlign=middle;whiteSpace=wrap;rounded=0;fontSize=16;" vertex="1" parent="1">
          <mxGeometry x="140" y="185" width="290" height="30" as="geometry" />
        </mxCell>
        <mxCell id="TNJB3uWYyl54-ObIorqC-17" value="NO" style="text;strokeColor=none;fillColor=none;align=left;verticalAlign=middle;spacingLeft=4;spacingRight=4;overflow=hidden;points=[[0,0.5],[1,0.5]];portConstraint=eastwest;rotatable=0;whiteSpace=wrap;html=1;" vertex="1" parent="1">
          <mxGeometry x="535" y="260" width="30" height="20" as="geometry" />
        </mxCell>
        <mxCell id="TNJB3uWYyl54-ObIorqC-29" value="" style="endArrow=none;html=1;rounded=0;fontSize=12;startSize=8;endSize=8;curved=1;entryX=0.992;entryY=0.493;entryDx=0;entryDy=0;entryPerimeter=0;" edge="1" parent="1">
          <mxGeometry width="50" height="50" relative="1" as="geometry">
            <mxPoint x="760.8" y="280.42" as="sourcePoint" />
            <mxPoint x="529.9999999999999" y="280.00000000000006" as="targetPoint" />
            <Array as="points">
              <mxPoint x="890" y="280" />
            </Array>
          </mxGeometry>
        </mxCell>
        <mxCell id="TNJB3uWYyl54-ObIorqC-33" style="edgeStyle=none;curved=1;rounded=0;orthogonalLoop=1;jettySize=auto;html=1;entryX=0.5;entryY=0;entryDx=0;entryDy=0;entryPerimeter=0;fontSize=12;startSize=8;endSize=8;" edge="1" parent="1" source="TNJB3uWYyl54-ObIorqC-11" target="TNJB3uWYyl54-ObIorqC-7">
          <mxGeometry relative="1" as="geometry" />
        </mxCell>
        <mxCell id="TNJB3uWYyl54-ObIorqC-34" value="&quot;---를 입력해주세요.&quot;&amp;nbsp;&lt;div&gt;출력&lt;/div&gt;" style="shape=parallelogram;perimeter=parallelogramPerimeter;whiteSpace=wrap;html=1;dashed=0;" vertex="1" parent="1">
          <mxGeometry x="710" y="345" width="170" height="50" as="geometry" />
        </mxCell>
        <mxCell id="TNJB3uWYyl54-ObIorqC-47" style="edgeStyle=none;curved=1;rounded=0;orthogonalLoop=1;jettySize=auto;html=1;fontSize=12;startSize=8;endSize=8;" edge="1" parent="1" source="TNJB3uWYyl54-ObIorqC-36" target="TNJB3uWYyl54-ObIorqC-46">
          <mxGeometry relative="1" as="geometry" />
        </mxCell>
        <mxCell id="TNJB3uWYyl54-ObIorqC-36" value="logInfo=dbInfo" style="html=1;whiteSpace=wrap;aspect=fixed;shape=isoRectangle;" vertex="1" parent="1">
          <mxGeometry x="430" y="340" width="100" height="60" as="geometry" />
        </mxCell>
        <mxCell id="TNJB3uWYyl54-ObIorqC-38" value="YES" style="text;strokeColor=none;fillColor=none;align=left;verticalAlign=middle;spacingLeft=4;spacingRight=4;overflow=hidden;points=[[0,0.5],[1,0.5]];portConstraint=eastwest;rotatable=0;whiteSpace=wrap;html=1;" vertex="1" parent="1">
          <mxGeometry x="480" y="310" width="40" height="20" as="geometry" />
        </mxCell>
        <mxCell id="TNJB3uWYyl54-ObIorqC-39" value="" style="endArrow=classic;html=1;rounded=0;fontSize=12;startSize=8;endSize=8;curved=1;entryX=0.5;entryY=0;entryDx=0;entryDy=0;" edge="1" parent="1" target="TNJB3uWYyl54-ObIorqC-34">
          <mxGeometry width="50" height="50" relative="1" as="geometry">
            <mxPoint x="795" y="280" as="sourcePoint" />
            <mxPoint x="650" y="250" as="targetPoint" />
          </mxGeometry>
        </mxCell>
        <mxCell id="TNJB3uWYyl54-ObIorqC-41" value="&quot;일치하는 정보가&lt;div&gt;&amp;nbsp;없습니다.&quot;&amp;nbsp;&lt;div&gt;출력&lt;/div&gt;&lt;/div&gt;" style="shape=parallelogram;perimeter=parallelogramPerimeter;whiteSpace=wrap;html=1;dashed=0;" vertex="1" parent="1">
          <mxGeometry x="550" y="435" width="160" height="50" as="geometry" />
        </mxCell>
        <mxCell id="TNJB3uWYyl54-ObIorqC-43" value="" style="endArrow=none;html=1;rounded=0;fontSize=12;startSize=8;endSize=8;curved=1;exitX=1.002;exitY=0.504;exitDx=0;exitDy=0;exitPerimeter=0;" edge="1" parent="1" source="TNJB3uWYyl54-ObIorqC-36">
          <mxGeometry width="50" height="50" relative="1" as="geometry">
            <mxPoint x="550" y="380" as="sourcePoint" />
            <mxPoint x="640" y="370" as="targetPoint" />
          </mxGeometry>
        </mxCell>
        <mxCell id="TNJB3uWYyl54-ObIorqC-44" value="" style="endArrow=classic;html=1;rounded=0;fontSize=12;startSize=8;endSize=8;curved=1;entryX=0.558;entryY=-0.006;entryDx=0;entryDy=0;entryPerimeter=0;" edge="1" parent="1" target="TNJB3uWYyl54-ObIorqC-41">
          <mxGeometry width="50" height="50" relative="1" as="geometry">
            <mxPoint x="639" y="370" as="sourcePoint" />
            <mxPoint x="630" y="430" as="targetPoint" />
          </mxGeometry>
        </mxCell>
        <mxCell id="TNJB3uWYyl54-ObIorqC-45" value="NO" style="text;strokeColor=none;fillColor=none;align=left;verticalAlign=middle;spacingLeft=4;spacingRight=4;overflow=hidden;points=[[0,0.5],[1,0.5]];portConstraint=eastwest;rotatable=0;whiteSpace=wrap;html=1;" vertex="1" parent="1">
          <mxGeometry x="535" y="350" width="30" height="20" as="geometry" />
        </mxCell>
        <mxCell id="TNJB3uWYyl54-ObIorqC-46" value="&lt;span style=&quot;background-color: initial;&quot;&gt;main화면 이동&lt;/span&gt;" style="html=1;dashed=0;whiteSpace=wrap;" vertex="1" parent="1">
          <mxGeometry x="430" y="430" width="100" height="40" as="geometry" />
        </mxCell>
        <mxCell id="TNJB3uWYyl54-ObIorqC-48" value="END" style="html=1;dashed=0;whiteSpace=wrap;shape=mxgraph.dfd.start" vertex="1" parent="1">
          <mxGeometry x="440" y="580" width="80" height="30" as="geometry" />
        </mxCell>
        <mxCell id="TNJB3uWYyl54-ObIorqC-49" style="edgeStyle=none;curved=1;rounded=0;orthogonalLoop=1;jettySize=auto;html=1;entryX=0.5;entryY=0.5;entryDx=0;entryDy=-15;entryPerimeter=0;fontSize=12;startSize=8;endSize=8;" edge="1" parent="1" source="TNJB3uWYyl54-ObIorqC-46" target="TNJB3uWYyl54-ObIorqC-48">
          <mxGeometry relative="1" as="geometry" />
        </mxCell>
        <mxCell id="TNJB3uWYyl54-ObIorqC-50" value="YES" style="text;strokeColor=none;fillColor=none;align=left;verticalAlign=middle;spacingLeft=4;spacingRight=4;overflow=hidden;points=[[0,0.5],[1,0.5]];portConstraint=eastwest;rotatable=0;whiteSpace=wrap;html=1;" vertex="1" parent="1">
          <mxGeometry x="480" y="400" width="40" height="20" as="geometry" />
        </mxCell>
        <mxCell id="TNJB3uWYyl54-ObIorqC-52" value="" style="endArrow=none;html=1;rounded=0;fontSize=12;startSize=8;endSize=8;curved=1;entryX=0.563;entryY=0.992;entryDx=0;entryDy=0;entryPerimeter=0;" edge="1" parent="1" target="TNJB3uWYyl54-ObIorqC-41">
          <mxGeometry width="50" height="50" relative="1" as="geometry">
            <mxPoint x="640" y="500" as="sourcePoint" />
            <mxPoint x="650" y="530" as="targetPoint" />
          </mxGeometry>
        </mxCell>
        <mxCell id="TNJB3uWYyl54-ObIorqC-53" value="" style="endArrow=none;html=1;rounded=0;fontSize=12;startSize=8;endSize=8;curved=1;entryX=0.478;entryY=1.008;entryDx=0;entryDy=0;entryPerimeter=0;" edge="1" parent="1" target="TNJB3uWYyl54-ObIorqC-34">
          <mxGeometry width="50" height="50" relative="1" as="geometry">
            <mxPoint x="791" y="530" as="sourcePoint" />
            <mxPoint x="800" y="470" as="targetPoint" />
          </mxGeometry>
        </mxCell>
        <mxCell id="TNJB3uWYyl54-ObIorqC-54" value="" style="endArrow=classic;html=1;rounded=0;fontSize=12;startSize=8;endSize=8;curved=1;" edge="1" parent="1">
          <mxGeometry width="50" height="50" relative="1" as="geometry">
            <mxPoint x="640" y="500" as="sourcePoint" />
            <mxPoint x="480" y="500" as="targetPoint" />
          </mxGeometry>
        </mxCell>
        <mxCell id="TNJB3uWYyl54-ObIorqC-55" value="" style="endArrow=classic;html=1;rounded=0;fontSize=12;startSize=8;endSize=8;curved=1;" edge="1" parent="1">
          <mxGeometry width="50" height="50" relative="1" as="geometry">
            <mxPoint x="790" y="530" as="sourcePoint" />
            <mxPoint x="480" y="530" as="targetPoint" />
          </mxGeometry>
        </mxCell>
        <mxCell id="TNJB3uWYyl54-ObIorqC-56" value="입력값이 없으면 입력 요청 메시지 출력" style="text;html=1;align=center;verticalAlign=middle;whiteSpace=wrap;rounded=0;fontSize=16;" vertex="1" parent="1">
          <mxGeometry x="80" y="265" width="350" height="30" as="geometry" />
        </mxCell>
        <mxCell id="TNJB3uWYyl54-ObIorqC-58" value="입력값이 있으면 DB의 값이랑 비교" style="text;html=1;align=center;verticalAlign=middle;whiteSpace=wrap;rounded=0;fontSize=16;" vertex="1" parent="1">
          <mxGeometry x="80" y="295" width="350" height="30" as="geometry" />
        </mxCell>
        <mxCell id="TNJB3uWYyl54-ObIorqC-59" value="정보가 불일치면 일치 정보 없다는 메시지 출력" style="text;html=1;align=center;verticalAlign=middle;whiteSpace=wrap;rounded=0;fontSize=16;" vertex="1" parent="1">
          <mxGeometry x="80" y="345" width="350" height="30" as="geometry" />
        </mxCell>
        <mxCell id="TNJB3uWYyl54-ObIorqC-60" value="정보가 일치하면 로그인 완료가 되었으니&lt;div&gt;main화면으로 이동&lt;/div&gt;" style="text;html=1;align=center;verticalAlign=middle;whiteSpace=wrap;rounded=0;fontSize=16;" vertex="1" parent="1">
          <mxGeometry x="80" y="400" width="350" height="30" as="geometry" />
        </mxCell>
      </root>
    </mxGraphModel>
  </diagram>
</mxfile>
